<svg xmlns="http://www.w3.org/2000/svg" width="279" height="182.28148" viewBox="0 0 279 182.28148"><defs><style>.a{isolation:isolate;}.b{opacity:0.1;mix-blend-mode:multiply;}.c{fill:#fff;}.c,.d{fill-rule:evenodd;}</style></defs><title>logo</title><g class="a"><g class="b"><polygon class="c" points="216.137 182.281 14.518 182.275 66.801 15.394 250.942 14.816 216.137 182.281"/><path class="d" d="M216.1371,182.28148L162.03641,123.5317h35.13267s7.62134-.63115,11.26175-1.96286A31.74762,31.74762,0,0,0,229.44215,92.485c0.20637-12.953,0-38.86577,0-38.86577A30.49094,30.49094,0,0,0,220.24,31.89477c-6.50211-6.572-14.47534-9.52028-23.70932-9.51031H91.63982a31.90648,31.90648,0,0,0-28.95649,21.722l-46.44775,138.175L0,182.28086,62.8638,0,279,0.00118Z"/><path class="d" d="M17.0509,132.75436q13.13-38.36455,26.2637-76.7254"/><path class="d" d="M159.64023,182.28148H59.90982l15.27877-45.96561,0.4461,0.64481c3.90567,6.16576,9.5395,9.28613,16.79106,8.712,7.49756-.5943,12.692-4.6722,15.48058-11.70838l1.42428-3.441Z"/><path class="d" d="M162.75331,89.90984l-48.78748-.01725c-8.96138,0-17.44378-8.783-17.35677-17.41818-0.087-9.09252,8.1705-17.12408,17.35453-17.08866,0.94935,0.00342,48.78972-.00377,48.78972-0.00377v9.961a8.12741,8.12741,0,0,0-5.26039,7.83579,7.82576,7.82576,0,0,0,5.26039,7.70042v9.03069Zm-46.35-17.397a5.381,5.381,0,1,0-5.35368,5.42352A5.38819,5.38819,0,0,0,116.40336,72.51288Z"/><path class="d" d="M94.2455,79.87229a20.59678,20.59678,0,0,0,10.81729,12.0608,18.75941,18.75941,0,0,0,8.44194,1.59372l4.36462-.00046-13.81451,38.56773a13.59483,13.59483,0,1,1-25.54176-9.31866Zm-3.66486,55.09912a5.33779,5.33779,0,0,0,5.399-5.34928,5.3945,5.3945,0,1,0-10.78868-.006A5.31942,5.31942,0,0,0,90.58064,134.97141Z"/><path class="d" d="M187.90138,70.28434a14.15361,14.15361,0,0,0-8.36-13.38954c-3.53823-1.79549-11.3048-1.51282-11.3048-1.51282h-0.44744L167.759,65.342a7.83655,7.83655,0,0,1,5.89252,4.9423h14.24989Z"/><path class="d" d="M167.7861,89.90984s3.09359-.01725,4.16913-0.01725c7.75354-.00342,13.92183-5.73991,15.94615-13.95625H173.65283c-0.26309,2.58188-3.2782,4.9429-5.86673,4.9429v9.03059Z"/><path class="d" d="M171.469,73.10225a5.42195,5.42195,0,0,1-10.84389-.00836A5.42195,5.42195,0,1,1,171.469,73.10225Z"/></g></g></svg>